<svg width="400" height="400" viewBox="0 0 400 400" fill="none" xmlns="http://www.w3.org/2000/svg">
<rect width="400" height="400" fill="#1F1F1F"/>
<path d="M68.79 216L82.02 186.6H87.396L100.668 216H94.956L83.574 189.498H85.758L74.418 216H68.79ZM74.88 209.196L76.35 204.912H92.226L93.696 209.196H74.88ZM122.005 200.124H136.663V204.744H122.005V200.124ZM122.467 216H117.007V186.6H138.469V191.178H122.467V216ZM161.389 198.822H176.005V203.316H161.389V198.822ZM161.809 211.422H178.399V216H156.349V186.6H177.811V191.178H161.809V211.422ZM197.086 216V186.6H202.546V216H197.086ZM229.062 216V191.22H219.318V186.6H244.266V191.22H234.522V216H229.062ZM267.338 216V191.22H257.594V186.6H282.542V191.22H272.798V216H267.338ZM312.605 216.42C310.309 216.42 308.195 216.042 306.263 215.286C304.331 214.53 302.651 213.48 301.223 212.136C299.795 210.764 298.689 209.168 297.905 207.348C297.121 205.5 296.729 203.484 296.729 201.3C296.729 199.116 297.121 197.114 297.905 195.294C298.689 193.446 299.795 191.85 301.223 190.506C302.651 189.134 304.331 188.07 306.263 187.314C308.195 186.558 310.295 186.18 312.563 186.18C314.859 186.18 316.959 186.558 318.863 187.314C320.795 188.07 322.475 189.134 323.903 190.506C325.331 191.85 326.437 193.446 327.221 195.294C328.005 197.114 328.397 199.116 328.397 201.3C328.397 203.484 328.005 205.5 327.221 207.348C326.437 209.196 325.331 210.792 323.903 212.136C322.475 213.48 320.795 214.53 318.863 215.286C316.959 216.042 314.873 216.42 312.605 216.42ZM312.563 211.632C314.047 211.632 315.419 211.38 316.679 210.876C317.939 210.372 319.031 209.658 319.955 208.734C320.879 207.782 321.593 206.69 322.097 205.458C322.629 204.198 322.895 202.812 322.895 201.3C322.895 199.788 322.629 198.416 322.097 197.184C321.593 195.924 320.879 194.832 319.955 193.908C319.031 192.956 317.939 192.228 316.679 191.724C315.419 191.22 314.047 190.968 312.563 190.968C311.079 190.968 309.707 191.22 308.447 191.724C307.215 192.228 306.123 192.956 305.171 193.908C304.247 194.832 303.519 195.924 302.987 197.184C302.483 198.416 302.231 199.788 302.231 201.3C302.231 202.784 302.483 204.156 302.987 205.416C303.519 206.676 304.247 207.782 305.171 208.734C306.095 209.658 307.187 210.372 308.447 210.876C309.707 211.38 311.079 211.632 312.563 211.632Z" fill="white"/>
</svg>
